<?xml version="1.0" standalone="no"?>
<!DOCTYPE svg PUBLIC "-//W3C//DTD SVG 20010904//EN"
 "http://www.w3.org/TR/2001/REC-SVG-20010904/DTD/svg10.dtd">
<svg version="1.0" xmlns="http://www.w3.org/2000/svg"
 width="512.000000pt" height="512.000000pt" viewBox="0 0 512.000000 512.000000"
 preserveAspectRatio="xMidYMid meet">

<g transform="translate(0.000000,512.000000) scale(0.100000,-0.100000)"
fill="#000000" stroke="none">
<path d="M2440 5113 c-651 -62 -1175 -509 -1333 -1138 -30 -116 -39 -213 -47
-505 -9 -307 -17 -364 -67 -490 -83 -207 -245 -395 -431 -501 l-55 -32 24 -19
c183 -145 392 -218 625 -218 77 0 104 -3 104 -12 0 -37 -57 -215 -95 -296 -61
-129 -126 -223 -222 -319 l-81 -82 121 -79 c219 -142 392 -231 636 -330 l114
-45 59 62 c99 106 150 232 150 375 -1 98 -11 139 -96 394 -61 183 -68 196
-117 250 -148 162 -246 353 -289 563 -19 90 -20 138 -20 668 0 314 2 571 5
571 3 0 31 -13 63 -29 396 -199 1220 -251 1812 -115 118 27 204 56 301 100 53
24 99 44 103 44 3 0 6 -249 6 -552 0 -438 -3 -572 -15 -643 -35 -221 -138
-431 -286 -590 l-61 -64 -75 -227 c-91 -274 -105 -360 -79 -474 27 -125 99
-247 181 -312 l26 -20 82 32 c226 90 474 218 678 352 l106 69 -64 62 c-153
146 -253 318 -313 537 -31 115 -40 106 118 113 163 6 254 28 386 90 88 43 216
128 216 145 0 5 -12 14 -27 21 -42 19 -143 94 -207 152 -141 129 -247 321
-291 525 -12 57 -19 165 -25 384 -10 357 -22 433 -104 644 -109 279 -328 543
-590 711 -267 170 -620 258 -926 228z"/>
<path d="M1592 3218 c4 -437 5 -444 30 -538 95 -355 355 -615 704 -706 125
-33 314 -37 439 -10 348 76 624 333 732 683 l27 88 4 463 c2 356 0 462 -9 462
-6 0 -42 -9 -79 -20 -104 -31 -294 -67 -452 -86 -201 -25 -647 -25 -848 0
-146 17 -383 63 -474 91 -27 8 -56 15 -63 15 -13 0 -14 -64 -11 -442z m1768
137 l0 -85 -90 0 -90 0 0 85 0 85 90 0 90 0 0 -85z m-3 -417 c-5 -124 -11
-170 -32 -243 -92 -316 -368 -544 -693 -572 l-73 -6 3 89 3 89 67 7 c193 19
379 142 468 310 61 114 72 160 77 326 l5 152 91 0 90 0 -6 -152z"/>
<path d="M2030 1889 c0 -7 15 -60 34 -118 47 -144 60 -227 53 -335 -6 -108
-38 -216 -92 -313 -73 -130 -153 -196 -674 -553 -261 -179 -496 -346 -522
-372 -43 -43 -87 -118 -104 -175 l-6 -23 1845 0 1845 0 -13 38 c-24 69 -53
116 -97 160 -24 24 -251 185 -504 359 -253 174 -488 338 -522 365 -162 128
-263 343 -264 559 0 105 14 176 61 313 16 50 30 93 30 98 0 5 -17 0 -37 -11
-284 -143 -699 -147 -975 -9 -35 17 -58 24 -58 17z"/>
</g>
</svg>
